<?xml version="1.0" standalone="no"?>
<!DOCTYPE svg PUBLIC "-//W3C//DTD SVG 20010904//EN"
 "http://www.w3.org/TR/2001/REC-SVG-20010904/DTD/svg10.dtd">
<svg version="1.0" xmlns="http://www.w3.org/2000/svg"
 width="200.000000pt" height="200.000000pt" viewBox="0 0 200.000000 200.000000"
 preserveAspectRatio="xMidYMid meet">

<g transform="translate(0.000000,200.000000) scale(0.100000,-0.100000)"
fill="#000000" stroke="none">
<path d="M107 1050 l3 -240 852 0 853 0 3 240 3 240 -858 0 -858 0 2 -240z
m1691 -2 l-3 -223 -835 0 -835 0 -3 223 -2 222 840 0 840 0 -2 -222z"/>
<path d="M510 1041 c0 -89 4 -152 10 -156 7 -4 10 48 10 149 0 97 -4 156 -10
156 -6 0 -10 -56 -10 -149z"/>
<path d="M970 1034 c0 -101 3 -153 10 -149 6 4 10 67 10 156 0 93 -4 149 -10
149 -6 0 -10 -59 -10 -156z"/>
<path d="M1400 1035 c0 -97 4 -155 10 -155 6 0 10 58 10 155 0 97 -4 155 -10
155 -6 0 -10 -58 -10 -155z"/>
<path d="M210 1160 c0 -5 7 -10 15 -10 22 0 22 -208 0 -216 -8 -4 -15 -10 -15
-15 0 -11 200 -12 200 -1 0 4 3 17 6 30 7 26 -19 32 -33 7 -5 -8 -27 -15 -53
-17 l-45 -3 -1 48 c-1 45 0 47 27 47 16 0 29 -4 29 -10 0 -5 7 -10 15 -10 10
0 15 10 15 34 0 38 -16 57 -26 32 -4 -10 -18 -16 -36 -16 -28 0 -29 1 -26 43
3 41 4 42 41 45 26 2 39 -1 43 -12 10 -26 34 -19 34 9 0 25 0 25 -95 25 -57 0
-95 -4 -95 -10z"/>
<path d="M610 1161 c0 -5 7 -11 15 -15 12 -4 15 -26 15 -106 0 -80 -3 -102
-15 -106 -30 -12 -14 -24 30 -24 44 0 60 12 30 24 -12 4 -15 24 -15 93 l0 87
61 -102 c55 -92 64 -102 90 -102 l29 0 0 120 c0 73 4 120 10 120 6 0 10 5 10
10 0 6 -20 10 -45 10 -43 0 -63 -15 -29 -22 12 -2 16 -21 17 -95 1 -51 -1 -89
-4 -85 -3 4 -31 51 -63 105 -57 97 -57 97 -96 97 -22 0 -40 -4 -40 -9z"/>
<path d="M1100 1140 c0 -35 12 -39 31 -9 12 17 23 20 61 17 l46 -3 -74 -104
c-41 -58 -74 -110 -74 -118 0 -10 23 -13 99 -13 l99 0 7 31 c9 39 -2 50 -24
23 -13 -16 -31 -23 -69 -25 -29 -2 -52 -3 -52 -2 0 1 34 50 75 109 41 59 72
111 69 116 -3 4 -48 8 -100 8 l-94 0 0 -30z"/>
<path d="M1568 1154 c-72 -39 -85 -173 -22 -223 110 -86 250 45 188 175 -28
59 -105 81 -166 48z m101 -30 c16 -21 21 -41 21 -88 0 -74 -18 -106 -60 -106
-45 0 -70 40 -70 110 0 66 26 110 65 110 14 0 32 -11 44 -26z"/>
</g>
</svg>
