<?xml version="1.0" encoding="utf-8" standalone="no"?>
<!DOCTYPE svg PUBLIC "-//W3C//DTD SVG 20010904//EN" "http://www.w3.org/TR/2001/REC-SVG-20010904/DTD/svg10.dtd"[]>
<svg version="1.0" xmlns="http://www.w3.org/2000/svg" width="170" height="44" viewBox="12 126 170 44" preserveAspectRatio="xMidYMid meet">
  <g transform="translate(0.000000,200.000000) scale(0.100000,-0.100000)" fill="#000000" stroke="none">
    <path d="M885 1810 c-55 -11 4 -19 80 -11 61 7 64 8 25 10 -25 2 -52 4 -60 5 -8 1 -28 0 -45 -4z" />
    <path d="M814 1788 c-17 -5 -36 -20 -44 -31 -12 -21 -12 -21 7 -4 11 9 29 17 40 17 12 0 23 7 27 15 3 8 4 15 3 14 -1 -1 -16 -5 -33 -11z" />
    <path d="M1112 1774 c10 -10 20 -16 22 -13 3 3 -5 11 -17 18 -21 13 -21 12 -5 -5z" />
    <path d="M715 1741 c-34 -21 -81 -69 -74 -76 3 -2 29 18 59 45 59 54 62 61 15 31z" />
    <path d="M598 1628 c-32 -41 -78 -132 -78 -153 0 -8 5 -15 10 -15 6 0 10 11 10 24 0 26 27 78 68 134 14 18 23 35 20 38 -3 2 -16 -10 -30 -28z" />
    <path d="M767 1612 c-9 -2 -17 -8 -17 -14 0 -6 9 -8 20 -5 11 3 22 2 25 -3 3 -4 44 -6 92 -4 91 4 103 4 128 4 8 -1 32 -1 53 -1 20 0 44 0 54 0 14 0 16 -9 12 -61 -5 -55 -3 -60 10 -48 11 9 16 30 16 72 0 59 -1 60 -25 56 -14 -3 -25 -2 -25 1 0 6 -312 9 -343 3z" />
    <path d="M887 1572 l-28 -3 2 -95 1 -94 99 0 c83 0 99 3 99 16 0 9 -8 14 -17 13 -10 -1 -48 -1 -85 0 l-68 1 0 65 0 65 38 2 c20 0 56 0 80 -1 23 -1 42 3 42 9 0 6 8 5 20 -2 14 -9 20 -24 20 -46 0 -21 4 -32 12 -30 15 5 20 38 5 38 -8 0 -7 4 1 12 16 16 15 28 -3 28 -8 0 -15 5 -15 10 0 6 -19 11 -42 10 -24 0 -63 1 -88 2 -25 2 -58 2 -73 0z" />
    <path d="M750 1561 c0 -11 25 -21 51 -21 18 0 19 -8 19 -120 0 -108 2 -119 17 -113 11 4 13 8 5 11 -7 2 -9 9 -5 15 4 6 8 61 11 123 l4 111 -51 1 c-28 1 -51 -2 -51 -7z" />
    <path d="M514 1336 c7 -114 20 -151 79 -231 52 -70 168 -156 216 -160 15 -1 33 -5 39 -9 22 -14 139 -18 190 -7 71 15 149 53 215 106 42 33 99 120 122 186 19 53 29 123 17 115 -5 -3 -12 -24 -15 -47 -13 -96 -130 -261 -212 -298 -16 -7 -43 -20 -59 -29 -46 -24 -210 -26 -277 -4 -99 33 -191 107 -250 202 -24 38 -60 193 -55 234 2 20 0 39 -6 42 -8 5 -9 -24 -4 -100z" />
    <path d="M873 1362 c-6 -4 -11 -24 -11 -44 0 -26 4 -36 12 -31 8 5 8 3 -1 -8 -6 -8 -11 -39 -12 -69 0 -37 3 -50 9 -40 7 10 10 11 10 3 0 -7 7 -13 16 -13 8 0 12 5 9 10 -3 6 -2 10 4 10 5 0 13 -5 16 -10 4 -6 19 -9 35 -8 16 1 26 6 24 10 -3 4 20 7 51 6 30 -1 55 -5 55 -9 0 -5 7 -6 15 -3 10 4 15 20 15 50 0 32 -4 44 -15 44 -10 0 -15 -10 -15 -34 l0 -34 -57 -4 c-32 -1 -77 -2 -100 0 l-43 3 0 75 0 74 85 0 c65 0 85 3 85 14 0 10 -20 13 -80 14 -57 1 -80 -2 -80 -11 0 -9 -2 -9 -8 0 -4 7 -13 9 -19 5z" />
    <path d="M819 1245 c-3 -41 -8 -50 -24 -53 -36 -6 -46 -12 -39 -23 4 -8 9 -7 15 2 6 10 9 11 9 2 0 -7 9 -13 20 -13 11 0 20 4 20 10 0 5 6 7 13 5 8 -4 13 8 15 36 2 26 -1 38 -8 34 -14 -9 -13 8 3 24 8 9 8 12 0 7 -6 -3 -13 0 -16 6 -3 7 -6 -9 -8 -37z" />
    <path d="M1133 1211 c3 -28 8 -55 12 -62 5 -8 1 -9 -14 -4 -13 4 -29 1 -38 -7 -13 -10 -15 -10 -9 0 5 9 -1 12 -23 10 -16 -1 -27 -6 -24 -12 4 -5 -6 -6 -23 -2 -59 16 -147 18 -155 5 -6 -10 -10 -10 -23 0 -17 14 -81 11 -81 -4 0 -6 76 -11 203 -12 l202 -3 0 70 c0 57 -3 70 -16 70 -13 0 -15 -9 -11 -49z" />
    <path d="M105 718 c-3 -8 -4 -108 -3 -223 l3 -210 30 -3 c23 -2 27 0 15 7 -13 9 -12 11 5 12 11 0 14 3 8 6 -10 3 -13 52 -13 194 l0 189 100 0 c60 0 100 -4 100 -10 0 -11 -6 -12 -111 -10 l-75 1 -2 -80 -2 -81 82 0 c102 0 98 -9 -5 -12 l-78 -2 3 -80 3 -81 82 3 c45 2 90 -1 100 -7 14 -8 8 -10 -29 -11 -26 0 -50 -5 -53 -10 -4 -7 -12 -7 -25 0 -10 5 -29 10 -41 10 -19 0 -20 -2 -8 -17 8 -10 9 -14 2 -10 -6 4 -14 3 -18 -3 -4 -6 14 -10 50 -10 35 0 54 4 50 10 -3 6 -2 10 4 10 5 0 13 -4 16 -10 3 -5 26 -10 51 -10 l45 0 -3 48 -3 47 -85 0 -85 0 -3 43 -3 42 75 0 76 0 0 45 0 45 -67 0 c-38 0 -73 4 -79 8 -5 4 -10 21 -10 37 l1 30 93 3 93 3 -3 47 -3 47 -138 3 c-106 2 -139 0 -142 -10z" />
    <path d="M500 505 l0 -225 50 0 50 0 0 122 0 123 123 -123 c67 -67 130 -122 139 -122 14 0 17 25 23 197 4 109 4 208 -1 221 -8 22 -15 25 -54 25 l-45 0 -3 -111 c-1 -62 -5 -112 -8 -112 -3 0 -60 52 -127 115 -66 63 -126 115 -134 115 -10 0 -13 -44 -13 -225z m340 85 c4 -176 1 -222 -14 -218 -8 2 -71 58 -139 126 -69 67 -127 122 -131 122 -3 0 -5 -63 -4 -140 1 -97 5 -140 12 -140 7 0 12 -9 13 -20 2 -22 -12 -27 -20 -7 -4 9 -8 8 -16 -3 -11 -17 -16 -14 -25 17 -6 18 -4 22 8 17 13 -5 16 15 18 151 l3 157 25 -22 c14 -12 62 -57 107 -102 45 -44 87 -77 92 -73 6 3 9 0 6 -8 -6 -14 31 -54 40 -45 3 3 6 61 6 129 1 109 5 156 14 147 2 -2 4 -41 5 -88z" />
    <path d="M994 716 c-3 -8 -4 -29 -2 -48 l3 -33 73 -3 c39 -2 72 -5 72 -7 0 -3 -36 -74 -80 -158 -44 -85 -80 -161 -80 -170 0 -15 17 -17 151 -17 l150 0 -3 47 -3 47 -67 -2 c-37 -1 -69 2 -72 7 -3 5 6 30 20 55 14 26 23 53 20 62 -3 8 -1 12 4 9 10 -6 110 184 110 210 0 22 -288 23 -296 1z m236 -35 c0 -6 -16 -43 -37 -83 -20 -40 -36 -75 -35 -78 0 -3 -5 -12 -12 -20 -15 -19 -61 -106 -75 -142 l-10 -26 67 0 c100 -1 128 -3 114 -9 -6 -2 -9 -10 -6 -16 5 -8 2 -8 -7 0 -8 9 -44 13 -101 13 -48 0 -88 2 -88 4 0 5 51 109 116 236 l53 105 -90 3 c-54 2 -87 7 -84 12 8 13 195 13 195 1z" />
    <path d="M1495 711 c-152 -70 -183 -264 -61 -380 35 -34 36 -34 56 -16 l21 19 -31 19 c-33 21 -63 71 -75 126 -11 52 12 117 56 154 45 39 128 69 153 55 9 -5 29 -7 45 -5 21 4 28 1 25 -8 -3 -6 6 -19 19 -28 14 -9 35 -37 47 -62 57 -117 -22 -253 -155 -269 -44 -6 -50 -10 -41 -32 5 -13 15 -15 54 -9 168 25 256 188 181 336 -51 101 -189 148 -294 100z m85 -421 c0 -5 -5 -10 -11 -10 -5 0 -7 5 -4 10 3 6 8 10 11 10 2 0 4 -4 4 -10z" />
    <path d="M1530 662 c-70 -32 -110 -89 -110 -155 0 -58 11 -87 48 -125 108 -110 312 -9 288 142 -11 69 -84 151 -117 131 -5 -4 -9 -1 -9 4 0 12 -76 14 -100 3z m117 -53 c41 -25 63 -66 63 -115 0 -29 -8 -44 -39 -75 -32 -32 -46 -39 -77 -39 -51 0 -83 18 -112 60 -28 41 -25 85 9 135 38 55 100 69 156 34z" />
    <path d="M1510 310 c0 -5 5 -10 11 -10 5 0 7 -4 4 -10 -3 -5 -1 -10 4 -10 6 0 11 9 11 20 0 11 -7 20 -15 20 -8 0 -15 -4 -15 -10z" />
  </g>
</svg>